<svg height='100px' width='100px'  fill="#ffffff" xmlns="http://www.w3.org/2000/svg" xmlns:xlink="http://www.w3.org/1999/xlink" xml:space="preserve" version="1.1" style="shape-rendering:geometricPrecision;text-rendering:geometricPrecision;image-rendering:optimizeQuality;" viewBox="0 0 0.683 0.683" x="0px" y="0px" fill-rule="evenodd" clip-rule="evenodd"><defs><style type="text/css">
   
    .fil0 {fill:#ffffff}
   
  </style></defs><g><path class="fil0" d="M0.227 0.364l0.146 0.146c0.013,0.012 0.032,0.012 0.044,0 0.012,-0.012 0.012,-0.032 0,-0.044l-0.124 -0.124 0.124 -0.125c0.012,-0.012 0.012,-0.032 0,-0.044 -0.012,-0.012 -0.031,-0.012 -0.044,0l-0.146 0.147c-0.012,0.012 -0.012,0.031 0,0.044zm0.456 -0.022c0,0.094 -0.038,0.179 -0.1,0.241 -0.062,0.062 -0.147,0.1 -0.241,0.1 -0.095,0 -0.18,-0.038 -0.242,-0.1 -0.062,-0.062 -0.1,-0.147 -0.1,-0.241 0,-0.095 0.038,-0.18 0.1,-0.242 0.062,-0.062 0.147,-0.1 0.242,-0.1 0.094,0 0.179,0.038 0.241,0.1 0.062,0.062 0.1,0.147 0.1,0.242z"></path></g></svg>